<?xml version="1.0" standalone="no"?>
<!DOCTYPE svg PUBLIC "-//W3C//DTD SVG 20010904//EN"
 "http://www.w3.org/TR/2001/REC-SVG-20010904/DTD/svg10.dtd">
<svg version="1.0" xmlns="http://www.w3.org/2000/svg"
 width="511.000000pt" height="511.000000pt" viewBox="0 0 511.000000 511.000000"
 preserveAspectRatio="xMidYMid meet">
<metadata>
Created by potrace 1.14, written by Peter Selinger 2001-2017
</metadata>
<g transform="translate(0.000000,511.000000) scale(0.100000,-0.100000)"
fill="#000000" stroke="none">
<path d="M2270 5029 c-345 -55 -575 -123 -810 -239 -564 -278 -994 -733 -1232
-1305 -70 -169 -133 -382 -157 -535 -7 -41 -16 -97 -21 -123 -6 -27 -10 -146
-10 -265 1 -343 32 -555 124 -833 226 -684 760 -1258 1428 -1533 324 -133 587
-184 963 -185 642 -2 1229 225 1698 657 429 394 697 900 799 1507 18 108 18
582 0 685 -56 323 -126 549 -242 780 -60 119 -159 285 -213 355 -218 282 -411
468 -655 628 -340 225 -749 370 -1146 407 -129 12 -448 11 -526 -1z m585 -339
c138 -23 186 -33 289 -62 61 -17 145 -44 186 -60 141 -56 384 -182 436 -226 6
-5 28 -21 50 -35 153 -97 412 -360 529 -537 17 -25 42 -61 57 -80 14 -19 36
-53 48 -75 11 -22 25 -47 30 -55 42 -66 147 -322 171 -415 4 -16 17 -66 28
-110 55 -212 77 -574 46 -775 -8 -52 -19 -125 -25 -161 -9 -67 -37 -166 -71
-253 -10 -27 -19 -53 -19 -58 0 -42 -120 -289 -208 -429 -82 -129 -99 -151
-210 -277 -250 -283 -580 -510 -889 -611 -29 -9 -55 -20 -59 -24 -4 -4 -16 -7
-26 -7 -10 0 -26 -4 -36 -9 -39 -21 -226 -60 -362 -77 -155 -18 -479 -16 -570
4 -25 6 -76 16 -115 22 -107 19 -209 47 -330 91 -117 44 -310 132 -335 155 -9
7 -37 25 -63 39 -26 13 -53 29 -60 35 -7 5 -44 33 -83 62 -39 29 -85 64 -103
78 -133 101 -331 327 -446 508 -5 9 -13 21 -18 26 -67 93 -172 315 -213 451
-10 33 -21 65 -24 70 -16 24 -53 198 -71 334 -20 157 -24 385 -9 511 19 156
53 339 69 375 5 11 12 31 14 45 17 89 163 407 241 522 139 208 185 264 318
394 113 111 179 167 253 216 22 15 65 44 95 65 30 21 84 53 120 72 36 19 71
38 78 44 21 17 162 77 242 104 41 13 84 29 95 34 68 31 324 78 510 93 73 6
382 -4 440 -14z"/>
<path d="M1970 4285 c-205 -39 -371 -193 -411 -383 -14 -68 -7 -192 15 -282
l17 -65 -63 -66 c-129 -137 -187 -277 -195 -475 -5 -95 -2 -132 12 -179 43
-150 129 -243 272 -295 53 -19 75 -22 150 -17 48 3 98 8 111 12 21 7 22 4 22
-37 0 -25 -9 -79 -19 -120 -54 -212 -197 -357 -398 -404 -92 -22 -238 -15
-312 15 -139 56 -241 163 -286 300 -23 71 -16 221 14 300 56 149 160 145 191
-6 22 -105 56 -143 129 -143 57 0 88 15 111 52 41 67 14 205 -51 265 -91 84
-257 91 -404 19 -94 -46 -159 -112 -204 -206 -35 -72 -36 -79 -35 -185 0 -95
4 -120 28 -179 57 -149 170 -254 334 -311 108 -38 199 -48 372 -42 212 7 338
43 492 143 129 83 236 212 297 358 47 113 64 203 64 346 0 205 -37 323 -229
738 -13 29 -24 56 -24 61 0 27 235 97 376 111 129 13 190 6 210 -25 21 -32 32
15 -236 -1010 -43 -165 -97 -372 -120 -460 -23 -88 -60 -217 -81 -287 -61
-200 -60 -203 105 -203 96 0 117 3 158 23 53 26 123 98 143 145 7 18 52 191
100 385 l87 354 27 -7 c107 -28 376 -33 501 -11 148 27 268 92 386 210 67 67
89 97 127 176 145 302 78 596 -173 763 -63 42 -142 72 -245 94 -96 20 -682 29
-960 14 -192 -10 -396 -37 -458 -60 -23 -9 -26 -7 -36 32 -5 24 -13 78 -17
122 -17 201 74 327 236 329 102 0 148 -39 117 -101 -39 -76 -29 -163 24 -208
24 -20 41 -25 82 -25 67 0 108 25 136 82 59 123 -19 269 -176 328 -71 27 -216
34 -313 15z m1231 -668 c110 -46 186 -134 229 -266 20 -64 22 -85 17 -179 -13
-238 -121 -433 -287 -515 -62 -31 -70 -32 -185 -32 -137 0 -211 20 -220 58 -8
35 229 928 251 944 29 21 131 16 195 -10z m-1410 -553 c55 -129 57 -144 17
-169 -18 -11 -49 -42 -70 -69 -20 -28 -49 -56 -64 -64 -61 -32 -160 16 -189
92 -25 64 -16 154 20 226 32 64 114 170 153 199 l27 20 33 -72 c19 -40 51
-113 73 -163z"/>
<path d="M2929 2355 c-83 -43 -144 -131 -179 -257 l-12 -47 -52 -3 c-47 -3
-51 -5 -54 -30 -3 -27 -2 -28 42 -28 25 0 46 -2 46 -4 0 -22 -108 -489 -126
-548 -25 -77 -64 -138 -89 -138 -7 0 -19 15 -25 34 -11 36 -26 46 -64 46 -32
0 -46 -19 -46 -61 0 -74 86 -102 178 -58 56 28 114 101 165 208 34 73 63 175
142 499 5 20 11 22 64 22 52 0 59 3 64 22 9 33 1 38 -59 38 -62 0 -60 -13 -23
128 23 87 42 128 67 141 23 12 39 2 60 -39 9 -18 24 -38 33 -43 24 -15 68 0
81 28 41 90 -98 150 -213 90z"/>
<path d="M4284 2215 c-31 -128 -41 -154 -54 -149 -70 31 -143 9 -214 -65 -77
-82 -128 -192 -134 -293 -4 -75 -4 -78 26 -108 63 -63 144 -23 232 115 17 28
29 42 26 32 -54 -168 -38 -200 78 -161 53 18 68 40 41 60 -23 17 -22 22 82
382 47 163 88 307 90 320 5 21 3 22 -64 22 l-70 0 -39 -155z m-94 -200 c36
-43 -4 -162 -98 -295 -52 -73 -67 -72 -66 2 1 64 42 187 82 253 36 58 58 69
82 40z"/>
<path d="M3144 2073 c-12 -2 -40 -20 -63 -40 -133 -114 -149 -397 -25 -449
104 -43 213 13 270 140 22 49 28 80 32 158 4 90 3 100 -19 132 -38 56 -106 77
-195 59z m114 -75 c25 -25 4 -124 -50 -233 -38 -79 -75 -117 -108 -113 -24 3
-25 6 -24 64 1 51 8 78 44 154 55 115 105 161 138 128z"/>
<path d="M3585 2061 c-93 -42 -147 -150 -149 -296 -1 -77 2 -95 22 -126 42
-68 135 -89 218 -48 74 35 123 120 144 246 13 82 7 135 -19 180 -37 60 -136
81 -216 44z m133 -63 c26 -26 7 -116 -52 -240 -68 -143 -159 -147 -127 -4 21
95 95 230 134 246 30 12 31 12 45 -2z"/>
</g>
</svg>
